<?xml version="1.0" encoding="UTF-8" standalone="no"?>
<svg
   height="128"
   width="128"
   version="1.1"
   id="svg26"
   sodipodi:docname="icon.svg"
   inkscape:version="1.2.2 (732a01da63, 2022-12-09)"
   xmlns:inkscape="http://www.inkscape.org/namespaces/inkscape"
   xmlns:sodipodi="http://sodipodi.sourceforge.net/DTD/sodipodi-0.dtd"
   xmlns="http://www.w3.org/2000/svg"
   xmlns:svg="http://www.w3.org/2000/svg">
  <defs
     id="defs30" />
  <sodipodi:namedview
     id="namedview28"
     pagecolor="#ffffff"
     bordercolor="#000000"
     borderopacity="0.25"
     inkscape:showpageshadow="2"
     inkscape:pageopacity="0.0"
     inkscape:pagecheckerboard="0"
     inkscape:deskcolor="#d1d1d1"
     showgrid="false"
     inkscape:zoom="1.7128906"
     inkscape:cx="239.65336"
     inkscape:cy="-62.467503"
     inkscape:window-width="1920"
     inkscape:window-height="1057"
     inkscape:window-x="-8"
     inkscape:window-y="-8"
     inkscape:window-maximized="1"
     inkscape:current-layer="svg26" />
  <g
     transform="translate(32 32)"
     id="g6">
    <path
       d="m-16-32c-8.86 0-16 7.13-16 15.99v95.98c0 8.86 7.13 15.99 16 15.99h96c8.86 0 16-7.13 16-15.99v-95.98c0-8.85-7.14-15.99-16-15.99z"
       fill="#363d52"
       id="path2" />
    <path
       d="m-16-32c-8.86 0-16 7.13-16 15.99v95.98c0 8.86 7.13 15.99 16 15.99h96c8.86 0 16-7.13 16-15.99v-95.98c0-8.85-7.14-15.99-16-15.99zm0 4h96c6.64 0 12 5.35 12 11.99v95.98c0 6.64-5.35 11.99-12 11.99h-96c-6.64 0-12-5.35-12-11.99v-95.98c0-6.64 5.36-11.99 12-11.99z"
       fill-opacity=".4"
       id="path4" />
  </g>
  <ellipse
     style="fill:#008000;stroke:#000000;stroke-width:1.36834"
     id="path242"
     cx="35.141129"
     cy="40.69857"
     rx="21.820551"
     ry="17.843538" />
  <path
     style="fill:#112b00;stroke:#112b00;stroke-width:1.37197"
     d="m 23.55791,54.732041 0.190285,-3.064995 6.982998,-1.313569 h 7.151653 l 8.136292,-2.846066 2.432629,-4.451539 5.155445,-3.13797 1.931252,1.021664 0.115588,2.700114 -1.152933,3.429875 -3.751784,4.597491 -5.020665,3.429875 -7.005343,1.897377 -6.368467,0.510833 -3.982961,-0.802737 z"
     id="path741" />
  <path
     style="fill:#55d400;stroke:#55d400;stroke-width:1.37197"
     d="m 21.381984,31.306727 -1.167616,0.948688 -1.094641,2.04333 -0.802737,1.897377 1.386545,1.313569 h 1.313569 l 1.021665,-1.824401 0.802737,-1.605473 2.554161,-1.824402 1.386545,-1.824401 -0.583808,-0.802737 -3.940707,0.875713 -1.094641,1.094641 z"
     id="path797" />
  <ellipse
     style="fill:#008000;stroke:#000000;stroke-width:0.934827"
     id="path242-9"
     cx="86.549599"
     cy="30.066133"
     rx="13.572084"
     ry="13.389827" />
  <path
     style="fill:#112b00;stroke:#112b00;stroke-width:0.937307"
     d="m 79.344997,40.596879 0.118355,-2.299979 4.343329,-0.985705 h 4.448231 l 5.060662,-2.135693 1.513062,-3.340444 3.206614,-2.354739 1.201218,0.766659 0.07189,2.02617 -0.717107,2.573786 -2.333556,3.449966 -3.122787,2.573785 -4.357228,1.423796 -3.961099,0.38333 -2.477348,-0.602376 z"
     id="path741-8" />
  <path
     style="fill:#55d400;stroke:#55d400;stroke-width:0.937307"
     d="m 77.991601,23.018476 -0.726242,0.711897 -0.680851,1.533319 -0.499292,1.423796 0.862412,0.985704 h 0.817022 l 0.635462,-1.369034 0.499291,-1.20475 1.588654,-1.369035 0.862412,-1.369034 -0.363121,-0.602376 -2.451066,0.657137 -0.680852,0.821421 z"
     id="path797-5" />
  <ellipse
     style="fill:#008000;stroke:#000000;stroke-width:1.78283"
     id="path242-0"
     cx="54.513111"
     cy="89.176743"
     rx="28.691984"
     ry="23.036522" />
  <path
     style="fill:#112b00;stroke:#112b00;stroke-width:1.78756"
     d="m 39.282264,107.29436 0.250207,-3.957 9.181989,-1.69585 h 9.403755 l 10.698464,-3.674364 3.198681,-5.747063 6.778921,-4.05121 2.539427,1.318998 0.151976,3.485925 -1.515995,4.42807 -4.93324,5.935494 -6.601711,4.42807 -9.211369,2.44956 -8.373938,0.65951 -5.237222,-1.03636 z"
     id="path741-6" />
  <path
     style="fill:#55d400;stroke:#55d400;stroke-width:1.78756"
     d="m 36.421125,77.051598 -1.535306,1.224784 -1.439351,2.637998 -1.055524,2.449568 1.823177,1.695855 h 1.727221 l 1.343394,-2.355354 1.055524,-2.072712 3.358483,-2.355355 1.823177,-2.355355 -0.767653,-1.036356 -5.181662,1.13057 -1.43935,1.413214 z"
     id="path797-0" />
  <ellipse
     style="fill:#008000;stroke:#000000;stroke-width:0.809431"
     id="path242-96"
     cx="97.78791"
     cy="68.086662"
     rx="12.175261"
     ry="11.190268" />
  <path
     style="fill:#112b00;stroke:#112b00;stroke-width:0.811579"
     d="m 91.324799,76.88751 0.106174,-1.922159 3.896319,-0.823782 h 3.990421 l 4.539827,-1.784861 1.35734,-2.791706 2.8766,-1.967924 1.07758,0.640719 0.0645,1.69333 -0.64331,2.150987 -2.09339,2.883237 -2.80139,2.150987 -3.908787,1.189907 -3.55343,0.32036 -2.222382,-0.503422 z"
     id="path741-9" />
  <path
     style="fill:#55d400;stroke:#55d400;stroke-width:0.811579"
     d="m 90.110692,62.196728 -0.651497,0.594953 -0.610779,1.281439 -0.447905,1.189908 0.773654,0.823782 H 89.9071 l 0.57006,-1.144142 0.447905,-1.006844 1.425151,-1.144143 0.773654,-1.144141 -0.325749,-0.503423 -2.198805,0.549188 -0.610779,0.686486 z"
     id="path797-1" />
</svg>
